# 3ds Max Wavefront OBJ Exporter v0.97b - (c)2007 guruware
# File Created: 26.04.2015 20:42:32

mtllib Cylinder_2Side.mtl

#
# object BuffCylinder
#

v  2.6189 0.0000 0.0000
v  2.5297 0.6778 0.0000
v  2.5297 0.6778 3.5849
v  2.6189 0.0000 3.5849
v  2.2680 1.3094 0.0000
v  2.2680 1.3094 3.5849
v  1.8518 1.8518 0.0000
v  1.8518 1.8518 3.5849
v  1.3094 2.2680 0.0000
v  1.3094 2.2680 3.5849
v  0.6778 2.5297 0.0000
v  0.6778 2.5297 3.5849
v  0.0000 2.6189 0.0000
v  0.0000 2.6189 3.5849
v  -0.6778 2.5297 0.0000
v  -0.6778 2.5297 3.5849
v  -1.3094 2.2680 0.0000
v  -1.3094 2.2680 3.5849
v  -1.8518 1.8518 0.0000
v  -1.8518 1.8518 3.5849
v  -2.2680 1.3094 0.0000
v  -2.2680 1.3094 3.5849
v  -2.5297 0.6778 0.0000
v  -2.5297 0.6778 3.5849
v  -2.6189 0.0000 0.0000
v  -2.6189 0.0000 3.5849
v  -2.5297 -0.6778 0.0000
v  -2.5297 -0.6778 3.5849
v  -2.2680 -1.3094 0.0000
v  -2.2680 -1.3094 3.5849
v  -1.8518 -1.8518 0.0000
v  -1.8518 -1.8518 3.5849
v  -1.3094 -2.2680 0.0000
v  -1.3094 -2.2680 3.5849
v  -0.6778 -2.5297 0.0000
v  -0.6778 -2.5297 3.5849
v  -0.0000 -2.6189 0.0000
v  -0.0000 -2.6189 3.5849
v  0.6778 -2.5297 0.0000
v  0.6778 -2.5297 3.5849
v  1.3094 -2.2680 0.0000
v  1.3094 -2.2680 3.5849
v  1.8518 -1.8518 0.0000
v  1.8518 -1.8518 3.5849
v  2.2680 -1.3094 0.0000
v  2.2680 -1.3094 3.5849
v  2.5297 -0.6778 0.0000
v  2.5297 -0.6778 3.5849
v  2.6119 0.0000 0.0000
v  2.6119 0.0000 3.5849
v  2.5229 0.6760 3.5849
v  2.5229 0.6760 0.0000
v  2.2620 1.3060 3.5849
v  2.2620 1.3060 0.0000
v  1.8469 1.8469 3.5849
v  1.8469 1.8469 0.0000
v  1.3060 2.2620 3.5849
v  1.3060 2.2620 0.0000
v  0.6760 2.5229 3.5849
v  0.6760 2.5229 0.0000
v  0.0000 2.6119 3.5849
v  0.0000 2.6119 0.0000
v  -0.6760 2.5229 3.5849
v  -0.6760 2.5229 0.0000
v  -1.3060 2.2620 3.5849
v  -1.3060 2.2620 0.0000
v  -1.8469 1.8469 3.5849
v  -1.8469 1.8469 0.0000
v  -2.2620 1.3060 3.5849
v  -2.2620 1.3060 0.0000
v  -2.5229 0.6760 3.5849
v  -2.5229 0.6760 0.0000
v  -2.6119 0.0000 3.5849
v  -2.6119 0.0000 0.0000
v  -2.5229 -0.6760 3.5849
v  -2.5229 -0.6760 0.0000
v  -2.2620 -1.3060 3.5849
v  -2.2620 -1.3060 0.0000
v  -1.8469 -1.8469 3.5849
v  -1.8469 -1.8469 0.0000
v  -1.3060 -2.2620 3.5849
v  -1.3060 -2.2620 0.0000
v  -0.6760 -2.5229 3.5849
v  -0.6760 -2.5229 0.0000
v  -0.0000 -2.6119 3.5849
v  -0.0000 -2.6119 0.0000
v  0.6760 -2.5229 3.5849
v  0.6760 -2.5229 0.0000
v  1.3060 -2.2620 3.5849
v  1.3060 -2.2620 0.0000
v  1.8469 -1.8469 3.5849
v  1.8469 -1.8469 0.0000
v  2.2620 -1.3060 3.5849
v  2.2620 -1.3060 0.0000
v  2.5229 -0.6760 3.5849
v  2.5229 -0.6760 0.0000
# 96 vertices

vn 1.0000 -0.0000 0.0000
vn 0.9659 0.2588 0.0000
vn 0.8660 0.5000 0.0000
vn 0.7071 0.7071 0.0000
vn 0.5000 0.8660 0.0000
vn 0.2588 0.9659 0.0000
vn 0.0000 1.0000 0.0000
vn -0.2588 0.9659 0.0000
vn -0.5000 0.8660 0.0000
vn -0.7071 0.7071 0.0000
vn -0.8660 0.5000 0.0000
vn -0.9659 0.2588 0.0000
vn -1.0000 0.0000 0.0000
vn -0.9659 -0.2588 0.0000
vn -0.8660 -0.5000 0.0000
vn -0.7071 -0.7071 0.0000
vn -0.5000 -0.8660 0.0000
vn -0.2588 -0.9659 0.0000
vn -0.0000 -1.0000 0.0000
vn 0.2588 -0.9659 0.0000
vn 0.5000 -0.8660 0.0000
vn 0.7071 -0.7071 0.0000
vn 0.8660 -0.5000 0.0000
vn 0.9659 -0.2588 0.0000
# 24 vertex normals

vt 0.9250 0.9950 523.7775
vt 0.9016 0.9950 523.7775
vt 0.9016 0.8726 523.7775
vt 0.9250 0.8726 523.7775
vt 0.8781 0.9950 523.7775
vt 0.8781 0.8726 523.7775
vt 0.8547 0.9950 523.7775
vt 0.8547 0.8726 523.7775
vt 0.0120 0.0131 523.7775
vt 0.1759 0.0131 523.7775
vt 0.1759 0.8704 523.7775
vt 0.0120 0.8704 523.7775
vt 0.3399 0.0131 523.7775
vt 0.3399 0.8704 523.7775
vt 0.5038 0.0131 523.7775
vt 0.5038 0.8704 523.7775
vt 0.6678 0.0131 523.7775
vt 0.6678 0.8704 523.7775
vt 0.8318 0.0131 523.7775
vt 0.8318 0.8704 523.7775
vt 0.9957 0.0131 523.7775
vt 0.9957 0.8704 523.7775
vt 0.9952 0.9950 523.7775
vt 0.9718 0.9950 523.7775
vt 0.9718 0.8726 523.7775
vt 0.9952 0.8726 523.7775
vt 0.9484 0.9950 523.7775
vt 0.9484 0.8726 523.7775
# 28 texture coords

g BuffCylinder
usemtl 04___Default
s 8
f 1/1/1 2/2/2 3/3/2 4/4/1 
f 2/2/2 5/5/3 6/6/3 3/3/2 
f 5/5/3 7/7/4 8/8/4 6/6/3 
f 7/9/4 9/10/5 10/11/5 8/12/4 
f 9/10/5 11/13/6 12/14/6 10/11/5 
f 11/13/6 13/15/7 14/16/7 12/14/6 
f 13/15/7 15/17/8 16/18/8 14/16/7 
f 15/17/8 17/19/9 18/20/9 16/18/8 
f 17/19/9 19/21/10 20/22/10 18/20/9 
f 19/23/10 21/24/11 22/25/11 20/26/10 
f 21/24/11 23/27/12 24/28/12 22/25/11 
f 23/27/12 25/1/13 26/4/13 24/28/12 
f 25/1/13 27/2/14 28/3/14 26/4/13 
f 27/2/14 29/5/15 30/6/15 28/3/14 
f 29/5/15 31/7/16 32/8/16 30/6/15 
f 31/9/16 33/10/17 34/11/17 32/12/16 
f 33/10/17 35/13/18 36/14/18 34/11/17 
f 35/13/18 37/15/19 38/16/19 36/14/18 
f 37/15/19 39/17/20 40/18/20 38/16/19 
f 39/17/20 41/19/21 42/20/21 40/18/20 
f 41/19/21 43/21/22 44/22/22 42/20/21 
f 43/23/22 45/24/23 46/25/23 44/26/22 
f 45/24/23 47/27/24 48/28/24 46/25/23 
f 47/27/24 1/1/1 4/4/1 48/28/24 
f 49/1/13 50/4/13 51/3/14 52/2/14 
f 52/2/14 51/3/14 53/6/15 54/5/15 
f 54/5/15 53/6/15 55/8/16 56/7/16 
f 56/9/16 55/12/16 57/11/17 58/10/17 
f 58/10/17 57/11/17 59/14/18 60/13/18 
f 60/13/18 59/14/18 61/16/19 62/15/19 
f 62/15/19 61/16/19 63/18/20 64/17/20 
f 64/17/20 63/18/20 65/20/21 66/19/21 
f 66/19/21 65/20/21 67/22/22 68/21/22 
f 68/23/22 67/26/22 69/25/23 70/24/23 
f 70/24/23 69/25/23 71/28/24 72/27/24 
f 72/27/24 71/28/24 73/4/1 74/1/1 
f 74/1/1 73/4/1 75/3/2 76/2/2 
f 76/2/2 75/3/2 77/6/3 78/5/3 
f 78/5/3 77/6/3 79/8/4 80/7/4 
f 80/9/4 79/12/4 81/11/5 82/10/5 
f 82/10/5 81/11/5 83/14/6 84/13/6 
f 84/13/6 83/14/6 85/16/7 86/15/7 
f 86/15/7 85/16/7 87/18/8 88/17/8 
f 88/17/8 87/18/8 89/20/9 90/19/9 
f 90/19/9 89/20/9 91/22/10 92/21/10 
f 92/23/10 91/26/10 93/25/11 94/24/11 
f 94/24/11 93/25/11 95/28/12 96/27/12 
f 96/27/12 95/28/12 50/4/13 49/1/13 
# 48 polygons

