# 3ds Max Wavefront OBJ Exporter v0.97b - (c)2007 guruware
# File Created: 03.03.2015 23:22:16

mtllib Plane_01.mtl

#
# object Plane_01
#

v  -25.0000 25.0000 0.0000
v  -25.0000 -25.0000 -0.0000
v  25.0000 -25.0000 -0.0000
v  25.0000 25.0000 0.0000
# 4 vertices

vn 0.0000 -0.0000 1.0000
# 1 vertex normals

vt 0.0000 1.0000 0.0000
vt 0.0000 0.0000 0.0000
vt 1.0000 0.0000 0.0000
vt 1.0000 1.0000 0.0000
# 4 texture coords

g Plane_01
usemtl wire_228153184
s 1
f 1/1/1 2/2/1 3/3/1 4/4/1 
# 1 polygons

