# 3ds Max Wavefront OBJ Exporter v0.97b - (c)2007 guruware
# File Created: 31.03.2015 18:03:51

mtllib Plane_Circle.mtl

#
# object Plane_Circle
#

v  1.6822 -0.9712 -0.0000
v  1.8253 -0.6644 -0.0000
v  1.9130 -0.3373 0.0000
v  1.9425 0.0000 0.0000
v  1.9130 0.3373 0.0000
v  1.8253 0.6644 0.0000
v  1.6822 0.9712 0.0000
v  1.4880 1.2486 0.0000
v  1.2486 1.4880 0.0000
v  0.9712 1.6822 0.0000
v  0.6644 1.8253 0.0000
v  0.3373 1.9130 0.0000
v  0.0000 1.9425 0.0000
v  -0.3373 1.9130 0.0000
v  -0.6644 1.8253 0.0000
v  -0.9712 1.6822 0.0000
v  -1.2486 1.4880 0.0000
v  -1.4880 1.2486 0.0000
v  -1.6822 0.9712 0.0000
v  -1.8253 0.6644 0.0000
v  -1.9130 0.3373 0.0000
v  -1.9425 0.0000 0.0000
v  -1.9130 -0.3373 0.0000
v  -1.8253 -0.6644 -0.0000
v  -1.6822 -0.9712 -0.0000
v  -1.4880 -1.2486 -0.0000
v  -1.2486 -1.4880 -0.0000
v  -0.9712 -1.6822 -0.0000
v  -0.6644 -1.8253 -0.0000
v  -0.3373 -1.9130 -0.0000
v  -0.0000 -1.9425 -0.0000
v  0.3373 -1.9130 -0.0000
v  0.6644 -1.8253 -0.0000
v  0.9712 -1.6822 -0.0000
v  1.2486 -1.4880 -0.0000
v  1.4880 -1.2486 -0.0000
v  1.6822 0.9712 -0.0022
v  1.8253 0.6644 -0.0022
v  1.9130 0.3373 -0.0022
v  1.9425 0.0000 -0.0022
v  1.9130 -0.3373 -0.0022
v  1.8253 -0.6644 -0.0022
v  1.6822 -0.9712 -0.0022
v  1.4880 -1.2486 -0.0022
v  1.2486 -1.4880 -0.0022
v  0.9712 -1.6822 -0.0022
v  0.6644 -1.8253 -0.0022
v  0.3373 -1.9130 -0.0022
v  -0.0000 -1.9425 -0.0022
v  -0.3373 -1.9130 -0.0022
v  -0.6644 -1.8253 -0.0022
v  -0.9712 -1.6822 -0.0022
v  -1.2486 -1.4880 -0.0022
v  -1.4880 -1.2486 -0.0022
v  -1.6822 -0.9712 -0.0022
v  -1.8253 -0.6644 -0.0022
v  -1.9130 -0.3373 -0.0022
v  -1.9425 0.0000 -0.0022
v  -1.9130 0.3373 -0.0022
v  -1.8253 0.6644 -0.0022
v  -1.6822 0.9712 -0.0022
v  -1.4880 1.2486 -0.0022
v  -1.2486 1.4880 -0.0022
v  -0.9712 1.6822 -0.0022
v  -0.6644 1.8253 -0.0022
v  -0.3373 1.9130 -0.0022
v  0.0000 1.9425 -0.0022
v  0.3373 1.9130 -0.0022
v  0.6644 1.8253 -0.0022
v  0.9712 1.6822 -0.0022
v  1.2486 1.4880 -0.0022
v  1.4880 1.2486 -0.0022
# 72 vertices

vn 0.0000 -0.0000 1.0000
vn 0.0000 0.0000 -1.0000
# 2 vertex normals

vt 0.7413 0.9179 0.2500
vt 0.6650 0.9534 0.2500
vt 0.5838 0.9752 0.2500
vt 0.5000 0.9825 0.2500
vt 0.4162 0.9752 0.2500
vt 0.3350 0.9534 0.2500
vt 0.2588 0.9179 0.2500
vt 0.1899 0.8696 0.2500
vt 0.1304 0.8101 0.2500
vt 0.0821 0.7412 0.2500
vt 0.0466 0.6650 0.2500
vt 0.0248 0.5838 0.2500
vt 0.0175 0.5000 0.2500
vt 0.0248 0.4162 0.2500
vt 0.0466 0.3350 0.2500
vt 0.0821 0.2588 0.2500
vt 0.1304 0.1899 0.2500
vt 0.1899 0.1304 0.2500
vt 0.2587 0.0821 0.2500
vt 0.3350 0.0466 0.2500
vt 0.4162 0.0248 0.2500
vt 0.5000 0.0175 0.2500
vt 0.5838 0.0248 0.2500
vt 0.6650 0.0466 0.2500
vt 0.7412 0.0821 0.2500
vt 0.8101 0.1304 0.2500
vt 0.8696 0.1899 0.2500
vt 0.9179 0.2587 0.2500
vt 0.9534 0.3350 0.2500
vt 0.9752 0.4162 0.2500
vt 0.9825 0.5000 0.2500
vt 0.9752 0.5838 0.2500
vt 0.9534 0.6650 0.2500
vt 0.9179 0.7412 0.2500
vt 0.8696 0.8101 0.2500
vt 0.8101 0.8696 0.2500
# 36 texture coords

g Plane_Circle
usemtl wire_184155229
s 1
f 1/1/1 2/2/1 3/3/1 4/4/1 5/5/1 6/6/1 7/7/1 8/8/1 9/9/1 10/10/1 11/11/1 12/12/1 13/13/1 14/14/1 15/15/1 16/16/1 17/17/1 18/18/1 19/19/1 20/20/1 21/21/1 22/22/1 23/23/1 24/24/1 25/25/1 26/26/1 27/27/1 28/28/1 29/29/1 30/30/1 31/31/1 32/32/1 33/33/1 34/34/1 35/35/1 36/36/1 
f 37/7/2 38/6/2 39/5/2 40/4/2 41/3/2 42/2/2 43/1/2 44/36/2 45/35/2 46/34/2 47/33/2 48/32/2 49/31/2 50/30/2 51/29/2 52/28/2 53/27/2 54/26/2 55/25/2 56/24/2 57/23/2 58/22/2 59/21/2 60/20/2 61/19/2 62/18/2 63/17/2 64/16/2 65/15/2 66/14/2 67/13/2 68/12/2 69/11/2 70/10/2 71/9/2 72/8/2 
# 2 polygons

