# 3ds Max Wavefront OBJ Exporter v0.97b - (c)2007 guruware
# File Created: 31.03.2015 18:02:33

mtllib Plane_Swing_01.mtl

#
# object Plane_Swing_01
#

v  -0.3710 1.1501 0.0000
v  -0.1537 1.3245 0.0000
v  -0.5588 1.7565 0.0000
v  -0.8962 1.5677 0.0000
v  0.5677 1.5858 0.0000
v  0.8048 1.5901 0.0000
v  0.7646 1.8154 0.0000
v  0.5118 1.8793 0.0000
v  0.0626 1.4479 0.0000
v  0.3153 1.5416 0.0000
v  0.1484 1.9067 0.0000
v  -0.2225 1.8658 0.0000
v  1.0416 1.5614 0.0000
v  1.2791 1.4880 0.0000
v  1.2749 1.5667 0.0000
v  1.0171 1.7186 0.0000
v  -0.7232 0.6370 0.0000
v  -0.5666 0.9134 0.0000
v  -1.2139 1.2946 0.0000
v  -1.4743 0.9356 0.0000
v  -1.6290 0.5658 -0.0000
v  -0.8002 0.3867 -0.0000
v  1.5169 1.3717 0.0000
v  -0.8236 0.1534 -0.0000
v  -1.7167 0.1534 -0.0000
v  -0.2891 -1.1441 -0.0000
v  -0.8001 -1.6355 -0.0000
v  -0.4374 -1.8027 -0.0000
v  -0.0515 -1.3100 -0.0000
v  0.7602 -1.5104 -0.0000
v  0.6962 -1.8424 -0.0000
v  0.9471 -1.7576 -0.0000
v  1.0042 -1.4858 -0.0000
v  0.1812 -1.4201 -0.0000
v  -0.0818 -1.8902 -0.0000
v  0.3044 -1.9067 -0.0000
v  0.4493 -1.4923 -0.0000
v  1.2434 -1.4172 -0.0000
v  1.1933 -1.6239 -0.0000
v  1.4373 -1.4426 -0.0000
v  1.4773 -1.3115 -0.0000
v  -0.6757 -0.6477 -0.0000
v  -1.4351 -1.0128 -0.0000
v  -1.1488 -1.3640 -0.0000
v  -0.5089 -0.9214 -0.0000
v  -0.7739 -0.3950 -0.0000
v  -1.6178 -0.6425 -0.0000
v  1.7167 -1.1614 -0.0000
v  -1.7028 -0.2278 -0.0000
v  -0.8343 -0.1041 -0.0000
v  -0.3710 1.1501 -0.0106
v  -0.8962 1.5677 -0.0106
v  -0.5588 1.7565 -0.0106
v  -0.1537 1.3245 -0.0106
v  0.5677 1.5858 -0.0106
v  0.5118 1.8793 -0.0106
v  0.7646 1.8154 -0.0106
v  0.8048 1.5901 -0.0106
v  0.0626 1.4479 -0.0106
v  -0.2225 1.8658 -0.0106
v  0.1484 1.9067 -0.0106
v  0.3153 1.5416 -0.0106
v  1.0416 1.5614 -0.0106
v  1.0171 1.7186 -0.0106
v  1.2749 1.5667 -0.0106
v  1.2791 1.4880 -0.0106
v  -0.7232 0.6370 -0.0106
v  -1.4743 0.9356 -0.0106
v  -1.2139 1.2946 -0.0106
v  -0.5666 0.9134 -0.0106
v  -0.8002 0.3867 -0.0106
v  -1.6290 0.5658 -0.0106
v  1.5169 1.3717 -0.0106
v  -0.8236 0.1534 -0.0106
v  -1.7167 0.1534 -0.0106
v  -0.2891 -1.1441 -0.0106
v  -0.0515 -1.3100 -0.0106
v  -0.4374 -1.8027 -0.0106
v  -0.8001 -1.6355 -0.0106
v  0.7602 -1.5104 -0.0106
v  1.0042 -1.4858 -0.0106
v  0.9471 -1.7576 -0.0106
v  0.6962 -1.8424 -0.0106
v  0.1812 -1.4201 -0.0106
v  0.4493 -1.4923 -0.0106
v  0.3044 -1.9067 -0.0106
v  -0.0818 -1.8902 -0.0106
v  1.2434 -1.4172 -0.0106
v  1.4773 -1.3115 -0.0106
v  1.4373 -1.4426 -0.0106
v  1.1933 -1.6239 -0.0106
v  -0.6757 -0.6477 -0.0106
v  -0.5089 -0.9214 -0.0106
v  -1.1488 -1.3640 -0.0106
v  -1.4351 -1.0128 -0.0106
v  -1.6178 -0.6425 -0.0106
v  -0.7739 -0.3950 -0.0106
v  1.7167 -1.1614 -0.0106
v  -0.8343 -0.1041 -0.0106
v  -1.7028 -0.2278 -0.0106
# 100 vertices

vn -0.0000 -0.0000 1.0000
vn 0.0000 0.0000 -1.0000
# 2 vertex normals

vt 0.3919 0.7243 0.0000
vt 0.4342 0.7582 0.0000
vt 0.3554 0.8423 0.0000
vt 0.2898 0.8055 0.0000
vt 0.5745 0.8091 0.0000
vt 0.6207 0.8099 0.0000
vt 0.6128 0.8537 0.0000
vt 0.5637 0.8662 0.0000
vt 0.4763 0.7822 0.0000
vt 0.5254 0.8005 0.0000
vt 0.4930 0.8715 0.0000
vt 0.4208 0.8635 0.0000
vt 0.6667 0.8043 0.0000
vt 0.7129 0.7901 0.0000
vt 0.7121 0.8054 0.0000
vt 0.6620 0.8349 0.0000
vt 0.3234 0.6245 0.0000
vt 0.3539 0.6783 0.0000
vt 0.2280 0.7524 0.0000
vt 0.1773 0.6826 0.0000
vt 0.1472 0.6106 0.0000
vt 0.3084 0.5758 0.0000
vt 0.7592 0.7674 0.0000
vt 0.3039 0.5304 0.0000
vt 0.1301 0.5304 0.0000
vt 0.4079 0.2780 0.0000
vt 0.3085 0.1824 0.0000
vt 0.3790 0.1499 0.0000
vt 0.4541 0.2457 0.0000
vt 0.6120 0.2067 0.0000
vt 0.5995 0.1422 0.0000
vt 0.6483 0.1587 0.0000
vt 0.6595 0.2115 0.0000
vt 0.4994 0.2243 0.0000
vt 0.4482 0.1329 0.0000
vt 0.5233 0.1297 0.0000
vt 0.5515 0.2103 0.0000
vt 0.7060 0.2249 0.0000
vt 0.6962 0.1847 0.0000
vt 0.7437 0.2199 0.0000
vt 0.7515 0.2454 0.0000
vt 0.3327 0.3746 0.0000
vt 0.1849 0.3035 0.0000
vt 0.2406 0.2352 0.0000
vt 0.3651 0.3213 0.0000
vt 0.3135 0.4237 0.0000
vt 0.1494 0.3756 0.0000
vt 0.7981 0.2746 0.0000
vt 0.1328 0.4563 0.0000
vt 0.3018 0.4803 0.0000
# 50 texture coords

g Plane_Swing_01
usemtl 02___Default
s 1
f 1/1/1 2/2/1 3/3/1 4/4/1 
f 5/5/1 6/6/1 7/7/1 8/8/1 
f 9/9/1 10/10/1 11/11/1 12/12/1 
f 13/13/1 14/14/1 15/15/1 16/16/1 
f 17/17/1 18/18/1 19/19/1 20/20/1 
f 17/17/1 20/20/1 21/21/1 22/22/1 
f 18/18/1 1/1/1 4/4/1 19/19/1 
f 2/2/1 9/9/1 12/12/1 3/3/1 
f 10/10/1 5/5/1 8/8/1 11/11/1 
f 6/6/1 13/13/1 16/16/1 7/7/1 
f 14/14/1 23/23/1 15/15/1 
f 24/24/1 22/22/1 21/21/1 25/25/1 
f 26/26/1 27/27/1 28/28/1 29/29/1 
f 30/30/1 31/31/1 32/32/1 33/33/1 
f 34/34/1 35/35/1 36/36/1 37/37/1 
f 38/38/1 39/39/1 40/40/1 41/41/1 
f 42/42/1 43/43/1 44/44/1 45/45/1 
f 42/42/1 46/46/1 47/47/1 43/43/1 
f 45/45/1 44/44/1 27/27/1 26/26/1 
f 29/29/1 28/28/1 35/35/1 34/34/1 
f 37/37/1 36/36/1 31/31/1 30/30/1 
f 33/33/1 32/32/1 39/39/1 38/38/1 
f 41/41/1 40/40/1 48/48/1 
f 24/24/1 25/25/1 49/49/1 50/50/1 
f 49/49/1 47/47/1 46/46/1 50/50/1 
f 51/1/2 52/4/2 53/3/2 54/2/2 
f 55/5/2 56/8/2 57/7/2 58/6/2 
f 59/9/2 60/12/2 61/11/2 62/10/2 
f 63/13/2 64/16/2 65/15/2 66/14/2 
f 67/17/2 68/20/2 69/19/2 70/18/2 
f 67/17/2 71/22/2 72/21/2 68/20/2 
f 70/18/2 69/19/2 52/4/2 51/1/2 
f 54/2/2 53/3/2 60/12/2 59/9/2 
f 62/10/2 61/11/2 56/8/2 55/5/2 
f 58/6/2 57/7/2 64/16/2 63/13/2 
f 66/14/2 65/15/2 73/23/2 
f 74/24/2 75/25/2 72/21/2 71/22/2 
f 76/26/2 77/29/2 78/28/2 79/27/2 
f 80/30/2 81/33/2 82/32/2 83/31/2 
f 84/34/2 85/37/2 86/36/2 87/35/2 
f 88/38/2 89/41/2 90/40/2 91/39/2 
f 92/42/2 93/45/2 94/44/2 95/43/2 
f 92/42/2 95/43/2 96/47/2 97/46/2 
f 93/45/2 76/26/2 79/27/2 94/44/2 
f 77/29/2 84/34/2 87/35/2 78/28/2 
f 85/37/2 80/30/2 83/31/2 86/36/2 
f 81/33/2 88/38/2 91/39/2 82/32/2 
f 89/41/2 98/48/2 90/40/2 
f 74/24/2 99/50/2 100/49/2 75/25/2 
f 100/49/2 99/50/2 97/46/2 96/47/2 
# 46 polygons - 4 triangles

